{
	"asset":{
		"generator":"Khronos glTF Blender I/O v3.5.30",
		"version":"2.0"
	},
	"scene":0,
	"scenes":[
		{
			"name":"Scene",
			"nodes":[
				0
			]
		}
	],
	"nodes":[
		{
			"mesh":0,
			"name":"Mesh1"
		}
	],
	"meshes":[
		{
			"name":"Mesh1",
			"primitives":[
				{
					"attributes":{
						"POSITION":0,
						"NORMAL":1
					},
					"indices":2
				}
			]
		}
	],
	"accessors":[
		{
			"bufferView":0,
			"componentType":5126,
			"count":15006,
			"max":[
				1.0002599954605103,
				0.8588042259216309,
				0.6853024959564209
			],
			"min":[
				-1.003190040588379,
				-0.8601365089416504,
				-0.6876543164253235
			],
			"type":"VEC3"
		},
		{
			"bufferView":1,
			"componentType":5126,
			"count":15006,
			"type":"VEC3"
		},
		{
			"bufferView":2,
			"componentType":5123,
			"count":90000,
			"type":"SCALAR"
		}
	],
	"bufferViews":[
		{
			"buffer":0,
			"byteLength":180072,
			"byteOffset":0,
			"target":34962
		},
		{
			"buffer":0,
			"byteLength":180072,
			"byteOffset":180072,
			"target":34962
		},
		{
			"buffer":0,
			"byteLength":180000,
			"byteOffset":360144,
			"target":34963
		}
	],
	"buffers":[
		{
			"byteLength":540144,
			"uri":"low_detailed_funny_sn_0917145239_preview.bin"
		}
	]
}
