{
	"asset":{
		"generator":"Khronos glTF Blender I/O v3.5.30",
		"version":"2.0"
	},
	"scene":0,
	"scenes":[
		{
			"name":"Scene",
			"nodes":[
				0,
				1,
				2
			]
		}
	],
	"nodes":[
		{
			"mesh":0,
			"name":"bunny",
			"rotation":[
				0.70710688829422,
				0,
				0,
				0.7071066498756409
			],
			"translation":[
				0,
				-0.029999999329447746,
				0
			]
		},
		{
			"mesh":1,
			"name":"Cube"
		},
		{
			"mesh":2,
			"name":"bunny.001",
			"rotation":[
				0.70710688829422,
				0,
				0,
				0.7071066498756409
			],
			"translation":[
				0,
				-0.029999999329447746,
				0
			]
		}
	],
	"materials":[
		{
			"doubleSided":true,
			"name":"Material.001",
			"pbrMetallicRoughness":{
				"baseColorTexture":{
					"index":0
				},
				"metallicFactor":0,
				"roughnessFactor":0
			}
		},
		{
			"doubleSided":true,
			"name":"Material",
			"pbrMetallicRoughness":{
				"baseColorFactor":[
					0.800000011920929,
					0.800000011920929,
					0.800000011920929,
					1
				],
				"metallicFactor":0,
				"roughnessFactor":0.5
			}
		},
		{
			"doubleSided":true,
			"name":"Material.002",
			"pbrMetallicRoughness":{
				"baseColorTexture":{
					"index":1
				},
				"metallicFactor":0,
				"roughnessFactor":0
			}
		}
	],
	"meshes":[
		{
			"name":"bunny",
			"primitives":[
				{
					"attributes":{
						"POSITION":0,
						"TEXCOORD_0":1,
						"NORMAL":2
					},
					"indices":3,
					"material":0
				}
			]
		},
		{
			"name":"Cube",
			"primitives":[
				{
					"attributes":{
						"POSITION":4,
						"TEXCOORD_0":5,
						"NORMAL":6
					},
					"indices":7,
					"material":1
				}
			]
		},
		{
			"name":"bunny.001",
			"primitives":[
				{
					"attributes":{
						"POSITION":8,
						"TEXCOORD_0":9,
						"NORMAL":10
					},
					"indices":3,
					"material":2
				}
			]
		}
	],
	"textures":[
		{
			"sampler":0,
			"source":0
		},
		{
			"sampler":0,
			"source":1
		}
	],
	"images":[
		{
			"mimeType":"image/png",
			"name":"metallicRoughness",
			"uri":"metallicRoughness.png"
		},
		{
			"mimeType":"image/png",
			"name":"baseColor",
			"uri":"baseColor.png"
		}
	],
	"accessors":[
		{
			"bufferView":0,
			"componentType":5126,
			"count":208353,
			"max":[
				0.06100910156965256,
				0.05879969894886017,
				-0.03298740088939667
			],
			"min":[
				-0.09468989819288254,
				-0.061873599886894226,
				-0.1873210072517395
			],
			"type":"VEC3"
		},
		{
			"bufferView":1,
			"componentType":5126,
			"count":208353,
			"type":"VEC2"
		},
		{
			"bufferView":2,
			"componentType":5126,
			"count":208353,
			"type":"VEC3"
		},
		{
			"bufferView":3,
			"componentType":5125,
			"count":208353,
			"type":"SCALAR"
		},
		{
			"bufferView":4,
			"componentType":5126,
			"count":24,
			"max":[
				1,
				1,
				1
			],
			"min":[
				-1,
				-1,
				-1
			],
			"type":"VEC3"
		},
		{
			"bufferView":5,
			"componentType":5126,
			"count":24,
			"type":"VEC2"
		},
		{
			"bufferView":6,
			"componentType":5126,
			"count":24,
			"type":"VEC3"
		},
		{
			"bufferView":7,
			"componentType":5123,
			"count":36,
			"type":"SCALAR"
		},
		{
			"bufferView":8,
			"componentType":5126,
			"count":208353,
			"max":[
				0.06100910156965256,
				0.05879969894886017,
				-0.03298740088939667
			],
			"min":[
				-0.09468989819288254,
				-0.061873599886894226,
				-0.1873210072517395
			],
			"type":"VEC3"
		},
		{
			"bufferView":9,
			"componentType":5126,
			"count":208353,
			"type":"VEC2"
		},
		{
			"bufferView":10,
			"componentType":5126,
			"count":208353,
			"type":"VEC3"
		}
	],
	"bufferViews":[
		{
			"buffer":0,
			"byteLength":2500236,
			"byteOffset":0,
			"target":34962
		},
		{
			"buffer":0,
			"byteLength":1666824,
			"byteOffset":2500236,
			"target":34962
		},
		{
			"buffer":0,
			"byteLength":2500236,
			"byteOffset":4167060,
			"target":34962
		},
		{
			"buffer":0,
			"byteLength":833412,
			"byteOffset":6667296,
			"target":34963
		},
		{
			"buffer":0,
			"byteLength":288,
			"byteOffset":7500708,
			"target":34962
		},
		{
			"buffer":0,
			"byteLength":192,
			"byteOffset":7500996,
			"target":34962
		},
		{
			"buffer":0,
			"byteLength":288,
			"byteOffset":7501188,
			"target":34962
		},
		{
			"buffer":0,
			"byteLength":72,
			"byteOffset":7501476,
			"target":34963
		},
		{
			"buffer":0,
			"byteLength":2500236,
			"byteOffset":7501548,
			"target":34962
		},
		{
			"buffer":0,
			"byteLength":1666824,
			"byteOffset":10001784,
			"target":34962
		},
		{
			"buffer":0,
			"byteLength":2500236,
			"byteOffset":11668608,
			"target":34962
		}
	],
	"samplers":[
		{
			"magFilter":9729,
			"minFilter":9987
		}
	],
	"buffers":[
		{
			"byteLength":14168844,
			"uri":"scene.bin"
		}
	]
}
